<svg xmlns="http://www.w3.org/2000/svg" version="1.1" xmlns:xlink="http://www.w3.org/1999/xlink" xmlns:svgjs="http://svgjs.dev/svgjs" width="1500" height="204" viewBox="0 0 1500 204"><g transform="matrix(1,0,0,1,-0.9090909090909918,-1.1966398238695746)"><svg viewBox="0 0 396 54" data-background-color="#ffffff" preserveAspectRatio="xMidYMid meet" height="204" width="1500" xmlns="http://www.w3.org/2000/svg" xmlns:xlink="http://www.w3.org/1999/xlink"><g id="tight-bounds" transform="matrix(1,0,0,1,0.2400000000000091,0.3167576004360626)"><svg viewBox="0 0 395.52 53.3664847991279" height="53.3664847991279" width="395.52"><g><svg viewBox="0 0 395.52 53.3664847991279" height="53.3664847991279" width="395.52"><g><svg viewBox="0 0 478.0429982101592 64.50109829417474" height="53.3664847991279" width="395.52"><g transform="matrix(1,0,0,1,82.52299821015922,13.16569944192413)"><svg viewBox="0 0 395.52 38.16969941032648" height="38.16969941032648" width="395.52"><g id="textblocktransform"><svg viewBox="0 0 395.52 38.16969941032648" height="38.16969941032648" width="395.52" id="textblock"><g><svg viewBox="0 0 395.52 38.16969941032648" height="38.16969941032648" width="395.52"><g transform="matrix(1,0,0,1,0,0)"><svg width="395.52" viewBox="4.4 -36.86 493.78000000000003 47.66" height="38.16969941032648" data-palette-color="#000000"><path d="M25.71 0L4.4 0 4.4-36.36 8.81-36.36 8.81-3.91 25.71-3.91 25.71 0ZM43.39 0.57L43.39 0.57Q39.45 0.57 36.6-1.18 33.75-2.93 32.22-6.08 30.68-9.23 30.68-13.42L30.68-13.42Q30.68-17.61 32.22-20.82 33.75-24.02 36.51-25.83 39.27-27.63 42.97-27.63L42.97-27.63Q45.1-27.63 47.17-26.92 49.25-26.21 50.96-24.62 52.66-23.03 53.67-20.42 54.69-17.81 54.69-13.99L54.69-13.99 54.69-12.22 33.66-12.22 33.66-15.84 50.42-15.84Q50.42-18.15 49.51-19.96 48.59-21.77 46.92-22.82 45.24-23.86 42.97-23.86L42.97-23.86Q40.46-23.86 38.64-22.63 36.82-21.4 35.85-19.42 34.87-17.45 34.87-15.2L34.87-15.2 34.87-12.78Q34.87-9.69 35.94-7.56 37.02-5.42 38.94-4.31 40.85-3.2 43.39-3.2L43.39-3.2Q45.04-3.2 46.38-3.67 47.72-4.14 48.7-5.09 49.68-6.04 50.21-7.46L50.21-7.46 54.26-6.32Q53.62-4.26 52.11-2.71 50.6-1.15 48.38-0.29 46.16 0.57 43.39 0.57ZM72.08 10.8L72.08 10.8Q69.05 10.8 66.86 10.02 64.68 9.25 63.23 8 61.78 6.75 60.93 5.33L60.93 5.33 64.27 2.98Q64.84 3.73 65.71 4.7 66.58 5.66 68.1 6.38 69.62 7.1 72.08 7.1L72.08 7.1Q75.39 7.1 77.53 5.5 79.68 3.91 79.68 0.5L79.68 0.5 79.68-5.04 79.33-5.04Q78.87-4.3 78.02-3.2 77.18-2.11 75.61-1.27 74.04-0.43 71.37-0.43L71.37-0.43Q68.07-0.43 65.45-1.99 62.83-3.55 61.31-6.53 59.8-9.52 59.8-13.78L59.8-13.78Q59.8-17.97 61.27-21.08 62.74-24.2 65.37-25.91 68-27.63 71.44-27.63L71.44-27.63Q74.11-27.63 75.68-26.75 77.25-25.87 78.09-24.76 78.94-23.65 79.4-22.94L79.4-22.94 79.82-22.94 79.82-27.27 83.87-27.27 83.87 0.78Q83.87 4.3 82.28 6.51 80.69 8.72 78.02 9.76 75.35 10.8 72.08 10.8ZM71.94-4.19L71.94-4.19Q74.46-4.19 76.2-5.34 77.94-6.5 78.85-8.66 79.75-10.83 79.75-13.85L79.75-13.85Q79.75-16.8 78.87-19.05 77.98-21.31 76.24-22.59 74.5-23.86 71.94-23.86L71.94-23.86Q69.28-23.86 67.51-22.51 65.74-21.16 64.87-18.89 63.99-16.62 63.99-13.85L63.99-13.85Q63.99-11.01 64.88-8.83 65.78-6.66 67.55-5.42 69.31-4.19 71.94-4.19ZM102.62 0.57L102.62 0.57Q98.93 0.57 96.15-1.19 93.37-2.95 91.82-6.11 90.26-9.27 90.26-13.49L90.26-13.49Q90.26-17.76 91.82-20.93 93.37-24.11 96.15-25.87 98.93-27.63 102.62-27.63L102.62-27.63Q106.31-27.63 109.09-25.87 111.87-24.11 113.42-20.93 114.98-17.76 114.98-13.49L114.98-13.49Q114.98-9.27 113.42-6.11 111.87-2.95 109.09-1.19 106.31 0.57 102.62 0.57ZM102.62-3.2L102.62-3.2Q105.43-3.2 107.24-4.63 109.05-6.07 109.92-8.42 110.79-10.76 110.79-13.49L110.79-13.49Q110.79-16.23 109.92-18.59 109.05-20.95 107.24-22.41 105.43-23.86 102.62-23.86L102.62-23.86Q99.81-23.86 98-22.41 96.19-20.95 95.32-18.59 94.45-16.23 94.45-13.49L94.45-13.49Q94.45-10.76 95.32-8.42 96.19-6.07 98-4.63 99.81-3.2 102.62-3.2ZM140.4 0L136 0 136-36.36 148.28-36.36Q152.56-36.36 155.29-34.83 158.01-33.29 159.33-30.68 160.64-28.07 160.64-24.86L160.64-24.86Q160.64-21.64 159.34-19.02 158.03-16.39 155.31-14.83 152.6-13.28 148.35-13.28L148.35-13.28 139.55-13.28 139.55-17.19 148.21-17.19Q151.14-17.19 152.92-18.2 154.69-19.21 155.5-20.94 156.31-22.67 156.31-24.86L156.31-24.86Q156.31-27.04 155.5-28.76 154.69-30.49 152.9-31.47 151.11-32.46 148.14-32.46L148.14-32.46 140.4-32.46 140.4 0ZM175.2 0.64L175.2 0.64Q172.61 0.64 170.49-0.35 168.38-1.33 167.14-3.2 165.89-5.08 165.89-7.74L165.89-7.74Q165.89-10.09 166.82-11.55 167.74-13.01 169.29-13.85 170.83-14.68 172.7-15.1 174.58-15.52 176.48-15.77L176.48-15.77Q178.96-16.09 180.52-16.26 182.07-16.42 182.79-16.83 183.51-17.24 183.51-18.25L183.51-18.25 183.51-18.39Q183.51-21.02 182.08-22.48 180.65-23.93 177.75-23.93L177.75-23.93Q174.75-23.93 173.05-22.62 171.35-21.31 170.65-19.82L170.65-19.82 166.68-21.24Q167.74-23.72 169.53-25.12 171.31-26.51 173.43-27.07 175.55-27.63 177.61-27.63L177.61-27.63Q178.93-27.63 180.64-27.32 182.35-27.01 183.96-26.05 185.57-25.09 186.63-23.15 187.7-21.22 187.7-17.97L187.7-17.97 187.7 0 183.51 0 183.51-3.69 183.29-3.69Q182.87-2.81 181.87-1.79 180.88-0.78 179.23-0.07 177.58 0.64 175.2 0.64ZM175.84-3.13L175.84-3.13Q178.32-3.13 180.04-4.1 181.75-5.08 182.63-6.62 183.51-8.17 183.51-9.87L183.51-9.87 183.51-13.71Q183.24-13.39 182.34-13.13 181.45-12.87 180.29-12.69 179.12-12.5 178.03-12.37 176.94-12.23 176.26-12.14L176.26-12.14Q174.63-11.93 173.22-11.46 171.81-10.99 170.95-10.06 170.08-9.13 170.08-7.53L170.08-7.53Q170.08-5.34 171.71-4.23 173.33-3.13 175.84-3.13ZM199.56 0L195.37 0 195.37-27.27 199.41-27.27 199.41-23.15 199.7-23.15Q200.44-25.18 202.4-26.44 204.35-27.7 206.8-27.7L206.8-27.7Q207.26-27.7 207.95-27.68 208.65-27.66 209-27.63L209-27.63 209-23.37Q208.79-23.42 208.03-23.54 207.28-23.65 206.45-23.65L206.45-23.65Q204.46-23.65 202.9-22.82 201.35-22 200.45-20.55 199.56-19.11 199.56-17.26L199.56-17.26 199.56 0ZM211.7-27.27L225.83-27.27 225.83-23.72 211.7-23.72 211.7-27.27ZM215.82-6.68L215.82-33.81 220.01-33.81 220.01-7.81Q220.01-6.04 220.53-5.16 221.06-4.28 221.88-3.99 222.71-3.69 223.63-3.69L223.63-3.69Q224.32-3.69 224.77-3.77 225.21-3.85 225.48-3.91L225.48-3.91 226.33-0.14Q225.9 0.02 225.14 0.19 224.38 0.36 223.2 0.36L223.2 0.36Q221.43 0.36 219.73-0.41 218.04-1.17 216.93-2.73 215.82-4.3 215.82-6.68L215.82-6.68ZM251.47-21.16L251.47-21.16 247.7-20.1Q247.35-21.04 246.67-21.94 245.98-22.83 244.81-23.42 243.64-24.01 241.81-24.01L241.81-24.01Q239.31-24.01 237.65-22.86 235.99-21.72 235.99-19.96L235.99-19.96Q235.99-18.39 237.12-17.49 238.26-16.58 240.67-15.98L240.67-15.98 244.72-14.99Q248.38-14.1 250.17-12.28 251.97-10.46 251.97-7.6L251.97-7.6Q251.97-5.26 250.63-3.41 249.29-1.56 246.89-0.5 244.49 0.57 241.31 0.57L241.31 0.57Q237.14 0.57 234.41-1.24 231.67-3.05 230.94-6.53L230.94-6.53 234.92-7.53Q235.49-5.33 237.08-4.23 238.67-3.13 241.24-3.13L241.24-3.13Q244.17-3.13 245.9-4.38 247.63-5.63 247.63-7.39L247.63-7.39Q247.63-8.81 246.64-9.77 245.65-10.74 243.59-11.22L243.59-11.22 239.04-12.29Q235.29-13.17 233.54-15.05 231.8-16.92 231.8-19.74L231.8-19.74Q231.8-22.05 233.1-23.83 234.41-25.6 236.67-26.62 238.93-27.63 241.81-27.63L241.81-27.63Q245.86-27.63 248.18-25.85 250.49-24.08 251.47-21.16ZM302.17-25L302.17-25 297.77-25Q297.38-26.9 296.41-28.34 295.44-29.78 294.07-30.76 292.69-31.75 291.02-32.24 289.35-32.74 287.54-32.74L287.54-32.74Q284.24-32.74 281.57-31.07 278.9-29.4 277.33-26.15 275.75-22.9 275.75-18.18L275.75-18.18Q275.75-13.46 277.33-10.21 278.9-6.96 281.57-5.29 284.24-3.62 287.54-3.62L287.54-3.62Q289.35-3.62 291.02-4.12 292.69-4.62 294.07-5.6 295.44-6.59 296.41-8.03 297.38-9.48 297.77-11.36L297.77-11.36 302.17-11.36Q301.68-8.58 300.36-6.37 299.05-4.17 297.1-2.64 295.14-1.1 292.72-0.3 290.3 0.5 287.54 0.5L287.54 0.5Q282.89 0.5 279.27-1.78 275.65-4.05 273.57-8.24 271.49-12.43 271.49-18.18L271.49-18.18Q271.49-23.93 273.57-28.13 275.65-32.32 279.27-34.59 282.89-36.86 287.54-36.86L287.54-36.86Q290.3-36.86 292.72-36.06 295.14-35.26 297.1-33.73 299.05-32.19 300.36-30 301.68-27.81 302.17-25ZM316.73 0.64L316.73 0.64Q314.14 0.64 312.03-0.35 309.91-1.33 308.67-3.2 307.43-5.08 307.43-7.74L307.43-7.74Q307.43-10.09 308.35-11.55 309.27-13.01 310.82-13.85 312.36-14.68 314.24-15.1 316.11-15.52 318.01-15.77L318.01-15.77Q320.5-16.09 322.05-16.26 323.6-16.42 324.32-16.83 325.04-17.24 325.04-18.25L325.04-18.25 325.04-18.39Q325.04-21.02 323.61-22.48 322.18-23.93 319.29-23.93L319.29-23.93Q316.29-23.93 314.58-22.62 312.88-21.31 312.19-19.82L312.19-19.82 308.21-21.24Q309.27-23.72 311.06-25.12 312.84-26.51 314.96-27.07 317.09-27.63 319.15-27.63L319.15-27.63Q320.46-27.63 322.17-27.32 323.89-27.01 325.49-26.05 327.1-25.09 328.17-23.15 329.23-21.22 329.23-17.97L329.23-17.97 329.23 0 325.04 0 325.04-3.69 324.83-3.69Q324.4-2.81 323.41-1.79 322.41-0.78 320.76-0.07 319.11 0.64 316.73 0.64ZM317.37-3.13L317.37-3.13Q319.86-3.13 321.57-4.1 323.28-5.08 324.16-6.62 325.04-8.17 325.04-9.87L325.04-9.87 325.04-13.71Q324.77-13.39 323.88-13.13 322.98-12.87 321.82-12.69 320.66-12.5 319.56-12.37 318.47-12.23 317.8-12.14L317.8-12.14Q316.16-11.93 314.75-11.46 313.34-10.99 312.48-10.06 311.62-9.13 311.62-7.53L311.62-7.53Q311.62-5.34 313.24-4.23 314.87-3.13 317.37-3.13ZM334.63-27.27L348.76-27.27 348.76-23.72 334.63-23.72 334.63-27.27ZM338.75-6.68L338.75-33.81 342.94-33.81 342.94-7.81Q342.94-6.04 343.46-5.16 343.98-4.28 344.81-3.99 345.64-3.69 346.56-3.69L346.56-3.69Q347.25-3.69 347.69-3.77 348.14-3.85 348.41-3.91L348.41-3.91 349.26-0.14Q348.83 0.02 348.07 0.19 347.3 0.36 346.13 0.36L346.13 0.36Q344.36 0.36 342.66-0.41 340.97-1.17 339.86-2.73 338.75-4.3 338.75-6.68L338.75-6.68ZM363.1 0.64L363.1 0.64Q360.51 0.64 358.4-0.35 356.29-1.33 355.04-3.2 353.8-5.08 353.8-7.74L353.8-7.74Q353.8-10.09 354.72-11.55 355.65-13.01 357.19-13.85 358.74-14.68 360.61-15.1 362.48-15.52 364.38-15.77L364.38-15.77Q366.87-16.09 368.42-16.26 369.98-16.42 370.69-16.83 371.41-17.24 371.41-18.25L371.41-18.25 371.41-18.39Q371.41-21.02 369.98-22.48 368.56-23.93 365.66-23.93L365.66-23.93Q362.66-23.93 360.96-22.62 359.25-21.31 358.56-19.82L358.56-19.82 354.58-21.24Q355.65-23.72 357.43-25.12 359.22-26.51 361.34-27.07 363.46-27.63 365.52-27.63L365.52-27.63Q366.83-27.63 368.55-27.32 370.26-27.01 371.87-26.05 373.47-25.09 374.54-23.15 375.6-21.22 375.6-17.97L375.6-17.97 375.6 0 371.41 0 371.41-3.69 371.2-3.69Q370.77-2.81 369.78-1.79 368.79-0.78 367.13-0.07 365.48 0.64 363.1 0.64ZM363.74-3.13L363.74-3.13Q366.23-3.13 367.94-4.1 369.66-5.08 370.53-6.62 371.41-8.17 371.41-9.87L371.41-9.87 371.41-13.71Q371.15-13.39 370.25-13.13 369.35-12.87 368.19-12.69 367.03-12.5 365.94-12.37 364.84-12.23 364.17-12.14L364.17-12.14Q362.54-11.93 361.12-11.46 359.71-10.99 358.85-10.06 357.99-9.13 357.99-7.53L357.99-7.53Q357.99-5.34 359.62-4.23 361.24-3.13 363.74-3.13ZM383.27-36.36L387.46-36.36 387.46 0 383.27 0 383.27-36.36ZM406.21 0.57L406.21 0.57Q402.52 0.57 399.74-1.19 396.96-2.95 395.41-6.11 393.85-9.27 393.85-13.49L393.85-13.49Q393.85-17.76 395.41-20.93 396.96-24.11 399.74-25.87 402.52-27.63 406.21-27.63L406.21-27.63Q409.9-27.63 412.68-25.87 415.46-24.11 417.01-20.93 418.57-17.76 418.57-13.49L418.57-13.49Q418.57-9.27 417.01-6.11 415.46-2.95 412.68-1.19 409.9 0.57 406.21 0.57ZM406.21-3.2L406.21-3.2Q409.02-3.2 410.83-4.63 412.64-6.07 413.51-8.42 414.38-10.76 414.38-13.49L414.38-13.49Q414.38-16.23 413.51-18.59 412.64-20.95 410.83-22.41 409.02-23.86 406.21-23.86L406.21-23.86Q403.4-23.86 401.59-22.41 399.78-20.95 398.91-18.59 398.04-16.23 398.04-13.49L398.04-13.49Q398.04-10.76 398.91-8.42 399.78-6.07 401.59-4.63 403.4-3.2 406.21-3.2ZM435.97 10.8L435.97 10.8Q432.93 10.8 430.75 10.02 428.56 9.25 427.11 8 425.67 6.75 424.82 5.33L424.82 5.33 428.15 2.98Q428.72 3.73 429.59 4.7 430.46 5.66 431.98 6.38 433.5 7.1 435.97 7.1L435.97 7.1Q439.27 7.1 441.42 5.5 443.57 3.91 443.57 0.5L443.57 0.5 443.57-5.04 443.21-5.04Q442.75-4.3 441.91-3.2 441.06-2.11 439.49-1.27 437.92-0.43 435.26-0.43L435.26-0.43Q431.95-0.43 429.33-1.99 426.72-3.55 425.2-6.53 423.68-9.52 423.68-13.78L423.68-13.78Q423.68-17.97 425.15-21.08 426.63-24.2 429.25-25.91 431.88-27.63 435.33-27.63L435.33-27.63Q437.99-27.63 439.56-26.75 441.13-25.87 441.98-24.76 442.82-23.65 443.28-22.94L443.28-22.94 443.71-22.94 443.71-27.27 447.76-27.27 447.76 0.78Q447.76 4.3 446.17 6.51 444.58 8.72 441.91 9.76 439.23 10.8 435.97 10.8ZM435.82-4.19L435.82-4.19Q438.35-4.19 440.09-5.34 441.83-6.5 442.73-8.66 443.64-10.83 443.64-13.85L443.64-13.85Q443.64-16.8 442.75-19.05 441.86-21.31 440.12-22.59 438.38-23.86 435.82-23.86L435.82-23.86Q433.16-23.86 431.39-22.51 429.63-21.16 428.75-18.89 427.87-16.62 427.87-13.85L427.87-13.85Q427.87-11.01 428.77-8.83 429.66-6.66 431.43-5.42 433.2-4.19 435.82-4.19ZM466.86 0.57L466.86 0.57Q462.92 0.57 460.07-1.18 457.22-2.93 455.68-6.08 454.15-9.23 454.15-13.42L454.15-13.42Q454.15-17.61 455.68-20.82 457.22-24.02 459.98-25.83 462.74-27.63 466.43-27.63L466.43-27.63Q468.56-27.63 470.64-26.92 472.72-26.21 474.42-24.62 476.13-23.03 477.14-20.42 478.15-17.81 478.15-13.99L478.15-13.99 478.15-12.22 457.13-12.22 457.13-15.84 473.89-15.84Q473.89-18.15 472.98-19.96 472.06-21.77 470.38-22.82 468.71-23.86 466.43-23.86L466.43-23.86Q463.93-23.86 462.11-22.63 460.29-21.4 459.31-19.42 458.34-17.45 458.34-15.2L458.34-15.2 458.34-12.78Q458.34-9.69 459.41-7.56 460.48-5.42 462.4-4.31 464.32-3.2 466.86-3.2L466.86-3.2Q468.51-3.2 469.85-3.67 471.19-4.14 472.17-5.09 473.14-6.04 473.68-7.46L473.68-7.46 477.72-6.32Q477.09-4.26 475.58-2.71 474.07-1.15 471.85-0.29 469.63 0.57 466.86 0.57ZM488.73 0L484.54 0 484.54-27.27 488.59-27.27 488.59-23.15 488.87-23.15Q489.62-25.18 491.57-26.44 493.52-27.7 495.98-27.7L495.98-27.7Q496.44-27.7 497.13-27.68 497.82-27.66 498.18-27.63L498.18-27.63 498.18-23.37Q497.96-23.42 497.21-23.54 496.45-23.65 495.62-23.65L495.62-23.65Q493.63-23.65 492.08-22.82 490.52-22 489.63-20.55 488.73-19.11 488.73-17.26L488.73-17.26 488.73 0Z" opacity="1" transform="matrix(1,0,0,1,0,0)" fill="#000000" class="wordmark-text-0" data-fill-palette-color="primary" id="text-0"></path></svg></g></svg></g></svg></g></svg></g><g><svg viewBox="0 0 64.50109829417474 64.50109829417474" height="64.50109829417474" width="64.50109829417474"><g><svg></svg></g><g id="icon-0"><svg viewBox="0 0 64.50109829417474 64.50109829417474" height="64.50109829417474" width="64.50109829417474"><g><path d="M0 32.251c0-17.811 14.439-32.251 32.251-32.251 17.811 0 32.251 14.439 32.25 32.251 0 17.811-14.439 32.251-32.25 32.25-17.811 0-32.251-14.439-32.251-32.25zM32.251 61.059c15.91 0 28.808-12.898 28.808-28.808 0-15.91-12.898-28.808-28.808-28.809-15.91 0-28.808 12.898-28.809 28.809 0 15.91 12.898 28.808 28.809 28.808z" data-fill-palette-color="accent" fill="#61777f" stroke="transparent"></path></g><g transform="matrix(1,0,0,1,20.845632278941107,18.361423214668704)"><svg viewBox="0 0 22.809833736292525 27.778251864837326" height="27.778251864837326" width="22.809833736292525"><g><svg xmlns="http://www.w3.org/2000/svg" xmlns:xlink="http://www.w3.org/1999/xlink" version="1.1" x="0" y="0" viewBox="0 0 82.114 100" enable-background="new 0 0 82.114 100" xml:space="preserve" id="dxe-0" width="22.809833736292525" height="27.778251864837326" class="icon-dxe-0" data-fill-palette-color="accent"><path d="M82.048 18.795C82.035 18.752 82.018 18.713 82.001 18.67A1.4 1.4 0 0 0 81.787 18.281 1.4 1.4 0 0 0 81.589 18.068C81.555 18.036 81.523 18.004 81.484 17.973 81.468 17.962 81.456 17.945 81.441 17.934A1.5 1.5 0 0 0 81.126 17.77C81.12 17.768 81.115 17.762 81.109 17.759L59.711 9.57V8.211C59.711 7.877 59.675 7.553 59.602 7.238A4.8 4.8 0 0 0 58.774 5.472 7 7 0 0 0 58.086 4.679C54.992 1.619 47.962 0 41.25 0H41.244C33.414 0 25.151 2.204 23.208 6.327A4.4 4.4 0 0 0 22.782 8.211V9.176L1.012 17.379C1 17.384 0.991 17.392 0.98 17.399 0.875 17.44 0.773 17.489 0.678 17.554 0.663 17.565 0.652 17.58 0.637 17.591 0.597 17.621 0.565 17.653 0.529 17.686A1.6 1.6 0 0 0 0.245 18.022 1.4 1.4 0 0 0 0.117 18.283C0.1 18.326 0.08 18.367 0.068 18.412 0.03 18.544 0.006 18.682 0.003 18.824 0.002 18.829 0 18.833 0 18.839V40.298L0.002 40.312V61.772L0 61.787V83.246C0 83.893 0.4 84.475 1.006 84.706L40.685 99.896C40.698 99.901 40.715 99.898 40.728 99.905 40.896 99.964 41.068 100 41.243 100S41.588 99.964 41.752 99.907C41.767 99.903 41.782 99.905 41.795 99.898L81.098 85.09A1.57 1.57 0 0 0 82.109 83.626V62.167L82.111 62.151V40.697C82.111 40.691 82.114 40.684 82.114 40.676V19.222C82.114 19.075 82.087 18.933 82.048 18.795M65.055 23.387L41.248 32.358 5.972 18.854 22.782 12.521V18.274C22.782 23.607 32.294 26.483 41.243 26.483 50.194 26.483 59.707 23.607 59.707 18.274V12.921L76.138 19.212zM41.248 23.353V16.422C47.036 16.42 53.044 15.21 56.578 12.916V18.275C56.578 20.345 50.607 23.353 41.248 23.353M55.965 6.973C56.366 7.401 56.577 7.823 56.577 8.211 56.577 10.282 50.604 13.291 41.245 13.291S25.912 10.283 25.912 8.211C25.912 8.082 25.936 7.949 25.981 7.813 26.672 5.775 32.47 3.131 41.245 3.131 48.851 3.131 54.219 5.118 55.965 6.973M78.98 82.544L42.809 96.173 42.812 56.567 42.813 53.222V35.113L78.98 21.485 78.984 21.484 78.982 42.939z" fill="#61777f" data-fill-palette-color="accent"></path></svg></g></svg></g></svg></g></svg></g></svg></g></svg></g><defs></defs></svg><rect width="395.52" height="53.3664847991279" fill="none" stroke="none" visibility="hidden"></rect></g></svg></g></svg>